<mxfile host="Electron" modified="2023-06-15T00:51:10.549Z" agent="Mozilla/5.0 (X11; Linux x86_64) AppleWebKit/537.36 (KHTML, like Gecko) draw.io/21.4.0 Chrome/112.0.5615.204 Electron/24.5.1 Safari/537.36" etag="IorE0F80MK9VITV_qyID" version="21.4.0" type="device">
  <diagram name="Page-1" id="ZFtYh5euHaGSYKI5nWg8">
    <mxGraphModel dx="1406" dy="870" grid="1" gridSize="10" guides="1" tooltips="1" connect="1" arrows="1" fold="1" page="1" pageScale="1" pageWidth="1169" pageHeight="827" math="0" shadow="0">
      <root>
        <mxCell id="0" />
        <mxCell id="1" parent="0" />
        <mxCell id="tHTa6dZi5eadQJ8x-i6F-61" value="" style="rounded=0;whiteSpace=wrap;html=1;" vertex="1" parent="1">
          <mxGeometry x="346.12" y="50" width="663.88" height="750" as="geometry" />
        </mxCell>
        <mxCell id="tHTa6dZi5eadQJ8x-i6F-1" value="" style="rounded=0;whiteSpace=wrap;html=1;" vertex="1" parent="1">
          <mxGeometry x="420" y="160" width="570" height="630" as="geometry" />
        </mxCell>
        <mxCell id="tHTa6dZi5eadQJ8x-i6F-13" value="" style="rounded=1;whiteSpace=wrap;html=1;" vertex="1" parent="tHTa6dZi5eadQJ8x-i6F-1">
          <mxGeometry x="187.3039581777446" y="169.6978723404255" width="289.46975354742347" height="382.1106382978723" as="geometry" />
        </mxCell>
        <mxCell id="tHTa6dZi5eadQJ8x-i6F-53" value="" style="rounded=1;whiteSpace=wrap;html=1;" vertex="1" parent="tHTa6dZi5eadQJ8x-i6F-1">
          <mxGeometry x="246.90067214339058" y="379.78723404255317" width="178.79014189693802" height="167.5531914893617" as="geometry" />
        </mxCell>
        <mxCell id="tHTa6dZi5eadQJ8x-i6F-22" value="&lt;font style=&quot;font-size: 9px;&quot;&gt;configuration&lt;br&gt;predicate&lt;br&gt;selector&lt;/font&gt;" style="rhombus;whiteSpace=wrap;html=1;" vertex="1" parent="tHTa6dZi5eadQJ8x-i6F-1">
          <mxGeometry x="83.03525018670649" y="283.7234042553191" width="76.81165048543689" height="92.19893617021276" as="geometry" />
        </mxCell>
        <mxCell id="tHTa6dZi5eadQJ8x-i6F-38" value="generate&lt;br&gt;missing&lt;br&gt;request id" style="rounded=0;whiteSpace=wrap;html=1;rotation=-90;" vertex="1" parent="tHTa6dZi5eadQJ8x-i6F-1">
          <mxGeometry x="310.7555414488424" y="262.95924528301884" width="114.93651979088872" height="50.518867924528294" as="geometry" />
        </mxCell>
        <mxCell id="tHTa6dZi5eadQJ8x-i6F-14" value="custom&lt;br&gt;configuration 2" style="rounded=1;whiteSpace=wrap;html=1;" vertex="1" parent="tHTa6dZi5eadQJ8x-i6F-1">
          <mxGeometry x="190.7094846900672" y="555.3281814532315" width="281.8073188946975" height="71.32075471698113" as="geometry" />
        </mxCell>
        <mxCell id="tHTa6dZi5eadQJ8x-i6F-26" value="" style="endArrow=classic;html=1;rounded=0;exitX=1;exitY=0.5;exitDx=0;exitDy=0;entryX=0;entryY=0.5;entryDx=0;entryDy=0;dashed=1;" edge="1" parent="tHTa6dZi5eadQJ8x-i6F-1" source="tHTa6dZi5eadQJ8x-i6F-22" target="tHTa6dZi5eadQJ8x-i6F-14">
          <mxGeometry width="50" height="50" relative="1" as="geometry">
            <mxPoint x="154.95145631067962" y="325.6981132075471" as="sourcePoint" />
            <mxPoint x="200.9260642270351" y="336.3962264150943" as="targetPoint" />
          </mxGeometry>
        </mxCell>
        <mxCell id="tHTa6dZi5eadQJ8x-i6F-41" value="rate limiter" style="rounded=0;whiteSpace=wrap;html=1;rotation=-90;" vertex="1" parent="tHTa6dZi5eadQJ8x-i6F-1">
          <mxGeometry x="379.99567587752057" y="262.95924528301884" width="114.93651979088872" height="50.518867924528294" as="geometry" />
        </mxCell>
        <mxCell id="tHTa6dZi5eadQJ8x-i6F-43" value="" style="endArrow=classic;html=1;rounded=0;exitX=0.5;exitY=1;exitDx=0;exitDy=0;entryX=0.5;entryY=0;entryDx=0;entryDy=0;" edge="1" parent="tHTa6dZi5eadQJ8x-i6F-1" source="tHTa6dZi5eadQJ8x-i6F-38" target="tHTa6dZi5eadQJ8x-i6F-41">
          <mxGeometry width="50" height="50" relative="1" as="geometry">
            <mxPoint x="413.77147124719943" y="300.4005319148936" as="sourcePoint" />
            <mxPoint x="426.54219566840925" y="300.4005319148936" as="targetPoint" />
          </mxGeometry>
        </mxCell>
        <mxCell id="tHTa6dZi5eadQJ8x-i6F-47" value="" style="rounded=0;whiteSpace=wrap;html=1;rotation=-90;" vertex="1" parent="tHTa6dZi5eadQJ8x-i6F-1">
          <mxGeometry x="10" y="284.54" width="89.69" height="35.05" as="geometry" />
        </mxCell>
        <mxCell id="tHTa6dZi5eadQJ8x-i6F-48" value="HTTP Client" style="shape=hexagon;perimeter=hexagonPerimeter2;whiteSpace=wrap;html=1;fixedSize=1;" vertex="1" parent="tHTa6dZi5eadQJ8x-i6F-1">
          <mxGeometry x="270.739357729649" y="413.2978723404255" width="102.16579536967886" height="89.36170212765957" as="geometry" />
        </mxCell>
        <mxCell id="tHTa6dZi5eadQJ8x-i6F-49" value="" style="endArrow=classic;html=1;rounded=0;exitX=-0.003;exitY=0.466;exitDx=0;exitDy=0;exitPerimeter=0;entryX=0.634;entryY=-0.022;entryDx=0;entryDy=0;entryPerimeter=0;" edge="1" parent="tHTa6dZi5eadQJ8x-i6F-1" source="tHTa6dZi5eadQJ8x-i6F-41" target="tHTa6dZi5eadQJ8x-i6F-48">
          <mxGeometry width="50" height="50" relative="1" as="geometry">
            <mxPoint x="212.8454070201643" y="256.9148936170213" as="sourcePoint" />
            <mxPoint x="255.41448842419717" y="201.06382978723403" as="targetPoint" />
          </mxGeometry>
        </mxCell>
        <mxCell id="tHTa6dZi5eadQJ8x-i6F-54" value="Retry Policy" style="text;html=1;strokeColor=none;fillColor=none;align=center;verticalAlign=middle;whiteSpace=wrap;rounded=0;" vertex="1" parent="tHTa6dZi5eadQJ8x-i6F-1">
          <mxGeometry x="293.3009708737864" y="509.3617021276595" width="60.02240477968633" height="33.51063829787234" as="geometry" />
        </mxCell>
        <mxCell id="tHTa6dZi5eadQJ8x-i6F-58" value="&lt;font style=&quot;font-size: 8px;&quot;&gt;success&lt;br style=&quot;border-color: var(--border-color);&quot;&gt;regex&lt;/font&gt;" style="shape=process;whiteSpace=wrap;html=1;backgroundOutline=1;rotation=0;" vertex="1" parent="tHTa6dZi5eadQJ8x-i6F-1">
          <mxGeometry x="372.90515309932783" y="413.2978723404255" width="51.08289768483943" height="33.51063829787234" as="geometry" />
        </mxCell>
        <mxCell id="tHTa6dZi5eadQJ8x-i6F-59" value="&lt;font style=&quot;font-size: 8px;&quot;&gt;retry&lt;br style=&quot;border-color: var(--border-color);&quot;&gt;regex&lt;/font&gt;" style="shape=process;whiteSpace=wrap;html=1;backgroundOutline=1;rotation=0;" vertex="1" parent="tHTa6dZi5eadQJ8x-i6F-1">
          <mxGeometry x="361.8371919342793" y="509.3617021276595" width="51.08289768483943" height="33.51063829787234" as="geometry" />
        </mxCell>
        <mxCell id="tHTa6dZi5eadQJ8x-i6F-60" value="&lt;font style=&quot;font-size: 8px;&quot;&gt;Struct/&lt;br&gt;Schema&lt;br style=&quot;border-color: var(--border-color);&quot;&gt;&lt;span style=&quot;border-color: var(--border-color);&quot;&gt;or&lt;/span&gt;&lt;br style=&quot;border-color: var(--border-color);&quot;&gt;&lt;span style=&quot;border-color: var(--border-color);&quot;&gt;String&lt;/span&gt;&lt;/font&gt;" style="text;html=1;strokeColor=none;fillColor=none;align=center;verticalAlign=middle;whiteSpace=wrap;rounded=0;" vertex="1" parent="tHTa6dZi5eadQJ8x-i6F-1">
          <mxGeometry x="27.135922330097088" y="268.96808510638294" width="51.08289768483943" height="33.51063829787234" as="geometry" />
        </mxCell>
        <mxCell id="tHTa6dZi5eadQJ8x-i6F-35" value="add&lt;br&gt;static&lt;br&gt;headers" style="rounded=0;whiteSpace=wrap;html=1;rotation=-90;" vertex="1" parent="tHTa6dZi5eadQJ8x-i6F-1">
          <mxGeometry x="165" y="266.97" width="135" height="42.5" as="geometry" />
        </mxCell>
        <mxCell id="tHTa6dZi5eadQJ8x-i6F-34" value="" style="endArrow=classic;html=1;rounded=0;entryX=0.5;entryY=0;entryDx=0;entryDy=0;exitX=1.002;exitY=0.498;exitDx=0;exitDy=0;exitPerimeter=0;dashed=1;" edge="1" parent="tHTa6dZi5eadQJ8x-i6F-1" source="tHTa6dZi5eadQJ8x-i6F-22" target="tHTa6dZi5eadQJ8x-i6F-35">
          <mxGeometry width="50" height="50" relative="1" as="geometry">
            <mxPoint x="150" y="290" as="sourcePoint" />
            <mxPoint x="350" y="261" as="targetPoint" />
          </mxGeometry>
        </mxCell>
        <mxCell id="tHTa6dZi5eadQJ8x-i6F-37" value="generate&lt;br&gt;missing&lt;br&gt;correlation id" style="rounded=0;whiteSpace=wrap;html=1;rotation=-90;" vertex="1" parent="tHTa6dZi5eadQJ8x-i6F-1">
          <mxGeometry x="237.90999999999997" y="266.97" width="135" height="42.5" as="geometry" />
        </mxCell>
        <mxCell id="tHTa6dZi5eadQJ8x-i6F-39" value="" style="endArrow=classic;html=1;rounded=0;exitX=0.519;exitY=1.024;exitDx=0;exitDy=0;entryX=0.516;entryY=-0.006;entryDx=0;entryDy=0;entryPerimeter=0;exitPerimeter=0;" edge="1" parent="tHTa6dZi5eadQJ8x-i6F-1" source="tHTa6dZi5eadQJ8x-i6F-35" target="tHTa6dZi5eadQJ8x-i6F-37">
          <mxGeometry width="50" height="50" relative="1" as="geometry">
            <mxPoint x="383" y="264.5" as="sourcePoint" />
            <mxPoint x="413" y="265.5" as="targetPoint" />
          </mxGeometry>
        </mxCell>
        <mxCell id="tHTa6dZi5eadQJ8x-i6F-40" value="" style="endArrow=classic;html=1;rounded=0;exitX=0.514;exitY=1.006;exitDx=0;exitDy=0;entryX=0.524;entryY=-0.01;entryDx=0;entryDy=0;entryPerimeter=0;exitPerimeter=0;" edge="1" parent="tHTa6dZi5eadQJ8x-i6F-1" source="tHTa6dZi5eadQJ8x-i6F-37" target="tHTa6dZi5eadQJ8x-i6F-38">
          <mxGeometry width="50" height="50" relative="1" as="geometry">
            <mxPoint x="439" y="265.5" as="sourcePoint" />
            <mxPoint x="452" y="266" as="targetPoint" />
          </mxGeometry>
        </mxCell>
        <mxCell id="tHTa6dZi5eadQJ8x-i6F-12" value="default&lt;br&gt;configuration" style="rounded=1;whiteSpace=wrap;html=1;" vertex="1" parent="tHTa6dZi5eadQJ8x-i6F-1">
          <mxGeometry x="187.29999999999995" y="70" width="331" height="60" as="geometry" />
        </mxCell>
        <mxCell id="tHTa6dZi5eadQJ8x-i6F-23" value="" style="endArrow=classic;html=1;rounded=0;entryX=0;entryY=0.5;entryDx=0;entryDy=0;dashed=1;exitX=1;exitY=0.5;exitDx=0;exitDy=0;" edge="1" parent="tHTa6dZi5eadQJ8x-i6F-1" source="tHTa6dZi5eadQJ8x-i6F-22" target="tHTa6dZi5eadQJ8x-i6F-12">
          <mxGeometry width="50" height="50" relative="1" as="geometry">
            <mxPoint x="190" y="287.3207547169811" as="sourcePoint" />
            <mxPoint x="185.35764485981304" y="233.04905660377358" as="targetPoint" />
          </mxGeometry>
        </mxCell>
        <mxCell id="tHTa6dZi5eadQJ8x-i6F-2" value="&lt;font style=&quot;font-size: 18px;&quot;&gt;HTTP Sink Connector&lt;/font&gt;" style="text;html=1;strokeColor=none;fillColor=none;align=center;verticalAlign=middle;whiteSpace=wrap;rounded=0;" vertex="1" parent="1">
          <mxGeometry x="633" y="184" width="170" height="30" as="geometry" />
        </mxCell>
        <mxCell id="tHTa6dZi5eadQJ8x-i6F-5" value="" style="shape=cylinder3;whiteSpace=wrap;html=1;boundedLbl=1;backgroundOutline=1;size=15;" vertex="1" parent="1">
          <mxGeometry x="250" y="305" width="70" height="230" as="geometry" />
        </mxCell>
        <mxCell id="tHTa6dZi5eadQJ8x-i6F-6" value="Topic&lt;br&gt;Http-Requests" style="text;html=1;strokeColor=none;fillColor=none;align=center;verticalAlign=middle;whiteSpace=wrap;rounded=0;" vertex="1" parent="1">
          <mxGeometry x="255" y="355" width="60" height="30" as="geometry" />
        </mxCell>
        <mxCell id="tHTa6dZi5eadQJ8x-i6F-9" value="" style="sketch=0;pointerEvents=1;shadow=0;dashed=0;html=1;strokeColor=none;fillColor=#505050;labelPosition=center;verticalLabelPosition=bottom;verticalAlign=top;outlineConnect=0;align=center;shape=mxgraph.office.concepts.email;" vertex="1" parent="1">
          <mxGeometry x="352" y="362" width="52" height="30" as="geometry" />
        </mxCell>
        <mxCell id="tHTa6dZi5eadQJ8x-i6F-10" value="&lt;font style=&quot;font-size: 10px;&quot;&gt;HttpRequest&lt;br&gt;message&lt;/font&gt;" style="text;html=1;align=center;verticalAlign=middle;resizable=0;points=[];autosize=1;strokeColor=none;fillColor=none;" vertex="1" parent="1">
          <mxGeometry x="338.5" y="394" width="80" height="40" as="geometry" />
        </mxCell>
        <mxCell id="tHTa6dZi5eadQJ8x-i6F-16" value="custom configuration 1" style="text;html=1;strokeColor=none;fillColor=none;align=center;verticalAlign=middle;whiteSpace=wrap;rounded=0;" vertex="1" parent="1">
          <mxGeometry x="757" y="333" width="90" height="30" as="geometry" />
        </mxCell>
        <mxCell id="tHTa6dZi5eadQJ8x-i6F-20" value="" style="shape=process;whiteSpace=wrap;html=1;backgroundOutline=1;rotation=-90;" vertex="1" parent="1">
          <mxGeometry x="317" y="434" width="236.25" height="19.75" as="geometry" />
        </mxCell>
        <mxCell id="tHTa6dZi5eadQJ8x-i6F-21" value="converter" style="text;html=1;strokeColor=none;fillColor=none;align=center;verticalAlign=middle;whiteSpace=wrap;rounded=0;rotation=-90;" vertex="1" parent="1">
          <mxGeometry x="406.12" y="384" width="60" height="30" as="geometry" />
        </mxCell>
        <mxCell id="tHTa6dZi5eadQJ8x-i6F-11" value="" style="endArrow=classic;html=1;rounded=0;exitX=1.005;exitY=0.574;exitDx=0;exitDy=0;exitPerimeter=0;entryX=0;entryY=0.5;entryDx=0;entryDy=0;" edge="1" parent="1" source="tHTa6dZi5eadQJ8x-i6F-5" target="tHTa6dZi5eadQJ8x-i6F-22">
          <mxGeometry width="50" height="50" relative="1" as="geometry">
            <mxPoint x="680" y="430" as="sourcePoint" />
            <mxPoint x="440" y="450" as="targetPoint" />
          </mxGeometry>
        </mxCell>
        <mxCell id="tHTa6dZi5eadQJ8x-i6F-62" value="&lt;font style=&quot;font-size: 18px;&quot;&gt;Java Virtual Machine&lt;/font&gt;" style="text;html=1;strokeColor=none;fillColor=none;align=center;verticalAlign=middle;whiteSpace=wrap;rounded=0;" vertex="1" parent="1">
          <mxGeometry x="633" y="90" width="113" height="30" as="geometry" />
        </mxCell>
        <mxCell id="tHTa6dZi5eadQJ8x-i6F-18" value="In memory&lt;br&gt;queue" style="shape=cylinder3;whiteSpace=wrap;html=1;boundedLbl=1;backgroundOutline=1;size=15;" vertex="1" parent="1">
          <mxGeometry x="1030.0013442867812" y="279.9954716981132" width="59.596713965646" height="244.75471698113208" as="geometry" />
        </mxCell>
        <mxCell id="tHTa6dZi5eadQJ8x-i6F-19" value="" style="endArrow=classic;html=1;rounded=0;exitX=0.924;exitY=0.254;exitDx=0;exitDy=0;exitPerimeter=0;" edge="1" parent="1" source="tHTa6dZi5eadQJ8x-i6F-48" target="tHTa6dZi5eadQJ8x-i6F-18">
          <mxGeometry width="50" height="50" relative="1" as="geometry">
            <mxPoint x="896.773711725168" y="450" as="sourcePoint" />
            <mxPoint x="1075.563853622106" y="470" as="targetPoint" />
          </mxGeometry>
        </mxCell>
        <mxCell id="tHTa6dZi5eadQJ8x-i6F-51" value="&amp;nbsp; &amp;nbsp; web site" style="shape=internalStorage;whiteSpace=wrap;html=1;backgroundOutline=1;" vertex="1" parent="1">
          <mxGeometry x="1020.0044361463779" y="610" width="68.11053024645258" height="80" as="geometry" />
        </mxCell>
        <mxCell id="tHTa6dZi5eadQJ8x-i6F-55" value="" style="endArrow=classic;html=1;rounded=0;exitX=0.001;exitY=0.515;exitDx=0;exitDy=0;exitPerimeter=0;entryX=0.903;entryY=0.774;entryDx=0;entryDy=0;entryPerimeter=0;" edge="1" parent="1" source="tHTa6dZi5eadQJ8x-i6F-51" target="tHTa6dZi5eadQJ8x-i6F-48">
          <mxGeometry width="50" height="50" relative="1" as="geometry">
            <mxPoint x="911.4515309932785" y="640.48" as="sourcePoint" />
            <mxPoint x="792.9051530993279" y="590" as="targetPoint" />
          </mxGeometry>
        </mxCell>
        <mxCell id="tHTa6dZi5eadQJ8x-i6F-52" value="" style="endArrow=classic;html=1;rounded=0;entryX=0;entryY=0.144;entryDx=0;entryDy=0;entryPerimeter=0;exitX=1;exitY=0.5;exitDx=0;exitDy=0;" edge="1" parent="1" source="tHTa6dZi5eadQJ8x-i6F-48" target="tHTa6dZi5eadQJ8x-i6F-51">
          <mxGeometry width="50" height="50" relative="1" as="geometry">
            <mxPoint x="794.6079163554891" y="570" as="sourcePoint" />
            <mxPoint x="910.4979835698282" y="611.52" as="targetPoint" />
          </mxGeometry>
        </mxCell>
      </root>
    </mxGraphModel>
  </diagram>
</mxfile>
